<svg width="136" height="40" viewBox="0 0 136 40" fill="none" xmlns="http://www.w3.org/2000/svg">
  <path d="M115.029 25.0222C114.526 23.8725 113.771 22.9444 112.765 22.2374C111.759 21.5311 110.549 21.1774 109.136 21.1774C107.675 21.1774 106.357 21.5788 105.184 22.3811C104.01 23.184 103.082 24.2981 102.399 25.723C101.716 27.1484 101.375 28.7715 101.375 30.5918C101.375 31.055 101.407 31.5072 101.47 31.9496C100.953 32.475 100.477 32.911 100.046 33.2506C99.2552 33.874 98.3446 34.185 97.3151 34.185C96.0451 34.185 95.1169 33.682 94.5302 32.6759C93.9429 31.6698 93.65 29.9215 93.65 27.4298C93.65 26.7594 93.6735 25.8252 93.7218 24.6271H98.1054C100.812 24.6271 102.166 23.8006 102.166 22.1477C102.166 21.693 102.082 21.3815 101.914 21.2135C101.747 21.0462 101.471 20.962 101.088 20.962H97.0635C100.177 18.2076 101.735 14.9737 101.735 11.2605C101.735 9.9191 101.447 8.8052 100.872 7.91859C100.297 7.03266 99.5069 6.5891 98.5008 6.5891C97.1354 6.5891 95.8598 7.23588 94.6742 8.52944C93.4885 9.823 92.4761 11.5601 91.6379 13.7396C90.7991 15.9196 90.1764 18.3271 89.7695 20.9618H87.7213C86.6434 20.9618 86.1044 21.6328 86.1044 22.974C86.1044 23.5491 86.2301 23.9684 86.4818 24.2316C86.7332 24.4957 87.2184 24.6269 87.9371 24.6269H89.3385C89.2666 25.7049 89.2307 26.771 89.2307 27.8249C89.2307 28.5977 89.2632 29.3247 89.3251 30.0106C89.1113 30.0879 88.9122 30.2332 88.7281 30.4479C87.6261 31.7655 86.7457 32.7178 86.0871 33.3045C85.4279 33.8918 84.8593 34.1849 84.3805 34.1849C83.6852 34.1849 83.3384 33.7059 83.3384 32.7476C83.3384 32.0772 83.5659 30.6994 84.0212 28.6154C84.5476 26.172 84.8117 24.4832 84.8117 23.5489C84.8117 21.992 84.0329 21.2133 82.4761 21.2133C81.6856 21.2133 80.8169 21.4889 79.871 22.0398C78.9244 22.5911 77.9605 23.513 76.9785 24.8066C75.9959 26.1001 75.1101 27.7771 74.3195 29.8371C74.4149 28.7832 74.5349 27.8967 74.6788 27.1781C74.8225 26.4594 75.014 25.6211 75.2537 24.6627C75.613 23.3215 75.7927 22.4591 75.7927 22.0755C75.7927 21.7403 75.6968 21.513 75.5054 21.3928C75.3134 21.2733 74.9783 21.2132 74.4991 21.2132C73.6127 21.2132 72.9237 21.3749 72.4332 21.6983C71.942 22.0215 71.5888 22.5308 71.3732 23.2254C70.9564 24.5428 70.639 25.8952 70.4181 27.2816C69.349 27.5184 68.3974 27.6637 67.5647 27.7169C67.3727 25.8725 66.7203 24.3213 65.6064 23.0637C64.4925 21.8061 63.0249 21.1772 61.2046 21.1772C59.719 21.1772 58.3659 21.5786 57.1442 22.381C55.9227 23.1838 54.9642 24.2979 54.2696 25.7228C53.5746 27.1483 53.2278 28.7713 53.2278 30.5916C53.2278 31.075 53.2632 31.5452 53.3315 32.0035C52.8118 32.5603 52.3564 33.0028 51.9703 33.3227C51.2752 33.8976 50.5566 34.185 49.8144 34.185C49.1191 34.185 48.5262 33.9874 48.0357 33.5922C47.5446 33.1969 47.2508 32.6759 47.1554 32.0289C48.784 31.1666 49.934 30.1847 50.6051 29.0825C51.2754 27.981 51.6112 26.771 51.6112 25.4533C51.6112 24.2559 51.2457 23.2498 50.5152 22.435C49.7842 21.621 48.8203 21.2133 47.6227 21.2133C46.3291 21.2133 44.9396 21.8905 43.4546 23.2435C41.969 24.5972 40.6518 26.7711 39.502 29.7654C39.502 28.4483 39.5381 27.1664 39.61 25.9206C42.7956 22.4476 45.0952 19.4113 46.509 16.8118C47.922 14.2128 48.629 11.7037 48.629 9.28402C48.629 7.77486 48.2876 6.5474 47.6049 5.60096C46.9222 4.65503 46.0295 4.18164 44.9279 4.18164C42.8674 4.18164 41.1012 5.54147 39.6278 8.26012C38.1547 10.9791 37.0407 14.3388 36.2861 18.3391C35.5315 22.3398 35.1542 26.1847 35.1542 29.8733C35.1542 30.3555 35.1573 30.8103 35.1632 31.241C34.3737 32.1535 33.7227 32.8439 33.2144 33.3049C32.5678 33.8922 32.0164 34.1852 31.5615 34.1852C31.2742 34.1852 31.0407 34.0772 30.8608 33.8618C30.6812 33.6462 30.5913 33.3588 30.5913 32.9994C30.5913 31.9215 30.8664 30.0052 31.4178 27.2503C31.7771 25.3583 31.9568 24.1601 31.9568 23.6571C31.9568 22.8189 31.3695 22.3994 30.1961 22.3994C29.6447 22.3994 29.1181 22.4477 28.6151 22.5432C28.4949 22.0167 28.3456 21.651 28.1661 21.4472C27.9862 21.244 27.6327 21.1418 27.1059 21.1418C25.453 21.1418 23.89 21.6628 22.4169 22.7049C20.9437 23.7469 19.7635 25.1247 18.8774 26.8371C18.6346 27.3064 18.4262 27.7833 18.25 28.2679C17.692 28.6671 17.2064 28.8674 16.7939 28.8674C16.1949 28.8674 15.8956 28.4484 15.8956 27.6098C15.8956 27.3706 15.991 26.7715 16.183 25.813C16.3985 24.6155 16.5064 23.8608 16.5064 23.5494C16.5064 21.9925 15.7276 21.2139 14.1708 21.2139C13.3803 21.2139 12.5117 21.4894 11.5657 22.0403C10.6191 22.5916 9.65523 23.5135 8.6732 24.8071C7.69065 26.1006 6.80489 27.7776 6.01421 29.8376C6.10964 28.7837 6.22964 27.8972 6.37354 27.1786C6.51726 26.46 6.70879 25.6216 6.94845 24.6632C7.30777 23.322 7.48743 22.4596 7.48743 22.0761C7.48743 21.7408 7.3915 21.5135 7.20015 21.3933C7.00811 21.2738 6.67303 21.2137 6.19387 21.2137C5.30743 21.2137 4.61845 21.3754 4.12794 21.6988C3.63676 22.022 3.28354 22.5313 3.06794 23.2259C2.1815 26.0286 1.73828 28.9874 1.73828 32.1011C1.73828 34.2093 1.9237 35.7425 2.29523 36.7005C2.66625 37.6588 3.30709 38.1376 4.2176 38.1376C4.95998 38.1376 5.50506 37.94 5.85252 37.5447C6.19947 37.1496 6.50489 36.3894 6.76879 35.263C7.12811 33.8022 7.59523 32.4127 8.17015 31.0949C8.74523 29.7777 9.32557 28.7177 9.91286 27.9149C10.4996 27.1127 10.9729 26.711 11.3322 26.711C11.5956 26.711 11.7274 26.9032 11.7274 27.2861C11.7274 27.4538 11.7032 27.7772 11.6556 28.2562C11.5837 28.6155 11.5476 28.9749 11.5476 29.3342C11.5476 30.4362 11.8766 31.3105 12.5357 31.9572C13.1944 32.604 14.1583 32.9276 15.4283 32.9276C16.1651 32.9276 16.8727 32.7945 17.5517 32.5311C17.5924 34.1647 18.0334 35.4949 18.8771 36.5208C19.7632 37.5988 20.949 38.1378 22.4344 38.1378C24.3264 38.1378 25.8957 37.1316 27.1415 35.1194C27.4768 36.0537 27.9735 36.7903 28.6327 37.3293C29.2913 37.8683 30.0161 38.1378 30.8066 38.1378C31.8361 38.1378 32.9023 37.7189 34.0044 36.8801C34.4974 36.5049 34.9781 36.0889 35.4474 35.6367C35.5798 36.3637 35.7754 36.9281 36.034 37.3293C36.3812 37.8683 36.9262 38.1378 37.669 38.1378C38.4112 38.1378 38.9564 37.9401 39.3039 37.5449C39.6508 37.1498 39.9562 36.3896 40.22 35.2632C40.603 33.7062 41.1301 32.191 41.801 30.7179C42.4713 29.2447 43.1961 28.041 43.9749 27.1066C44.753 26.1723 45.4661 25.7052 46.1129 25.7052C46.3762 25.7052 46.5978 25.813 46.7776 26.0286C46.9573 26.244 47.0471 26.5676 47.0471 26.9988C47.0471 27.7416 46.8191 28.3705 46.3644 28.8852C45.909 29.4006 45.1546 29.8857 44.1008 30.3405C43.1425 30.7481 42.6635 31.4184 42.6635 32.3527C42.6635 34.1015 43.2261 35.503 44.3524 36.5569C45.4781 37.6113 46.963 38.1378 48.8079 38.1378C50.3171 38.1378 51.6223 37.7425 52.7246 36.9522C53.3507 36.5028 53.9732 35.9652 54.5918 35.3455C55.0588 36.0349 55.6381 36.6203 56.3356 37.0959C57.3535 37.791 58.5813 38.1378 60.0186 38.1378C61.7191 38.1378 63.2401 37.5332 64.582 36.3232C65.9232 35.1139 66.8215 33.5025 67.2768 31.4903C68.2501 31.4498 69.1761 31.3381 70.0579 31.1601C70.0488 31.4723 70.043 31.7859 70.043 32.1013C70.043 34.2094 70.2285 35.7427 70.6 36.7006C70.971 37.6589 71.6118 38.1378 72.5224 38.1378C73.2647 38.1378 73.8098 37.9401 74.1573 37.5449C74.5042 37.1498 74.8096 36.3896 75.0735 35.2632C75.4329 33.8023 75.9056 32.4128 76.4929 31.095C77.0795 29.7779 77.6546 28.7179 78.2176 27.915C78.7801 27.1128 79.2174 26.7111 79.5291 26.7111C79.7924 26.7111 79.9244 26.9033 79.9244 27.2862C79.9244 27.8611 79.7683 28.9032 79.4571 30.4123C79.1215 32.1371 78.954 33.335 78.954 34.0054C78.954 35.3472 79.2651 36.3713 79.8885 37.0776C80.511 37.7845 81.4334 38.1376 82.6551 38.1376C84.1642 38.1376 85.5117 37.7306 86.6976 36.9159C87.8834 36.1018 88.991 35.0598 90.0212 33.79C90.0474 33.7594 90.0705 33.7257 90.0954 33.6937C91.1976 36.6564 93.3525 38.1378 96.5607 38.1378C98.1417 38.1378 99.543 37.7308 100.765 36.9161C101.442 36.465 102.088 35.9413 102.706 35.3501C103.153 36.0254 103.707 36.6032 104.376 37.0778C105.369 37.7847 106.573 38.1378 107.987 38.1378C109.424 38.1378 110.736 37.7371 111.921 36.934C113.107 36.1318 114.047 35.0177 114.742 33.5923C115.437 32.1674 115.784 30.5444 115.784 28.7233C115.783 27.4061 115.532 26.172 115.029 25.0222ZM95.069 15.123C95.4642 13.5301 95.883 12.2844 96.3266 11.3859C96.7695 10.4876 97.1708 10.0386 97.5303 10.0386C98.0569 10.0386 98.3208 10.7454 98.3208 12.1586C98.3208 13.4045 97.9671 14.7879 97.2608 16.3086C96.5539 17.8303 95.4939 19.2011 94.0808 20.4228C94.3441 18.4825 94.6737 16.7162 95.069 15.123ZM41.2076 14.5838C41.6984 12.4881 42.2074 10.8233 42.7347 9.58927C43.2613 8.35588 43.741 7.73876 44.172 7.73876C44.483 7.73876 44.7227 7.94249 44.8907 8.34961C45.0579 8.75724 45.142 9.34402 45.142 10.1105C45.142 11.7876 44.6571 13.6559 43.6868 15.7159C42.7166 17.7762 41.4888 19.6808 40.0039 21.4291C40.3151 18.962 40.7164 16.6803 41.2076 14.5838ZM26.2783 31.0947C26.0629 32.125 25.7152 32.9515 25.2364 33.574C24.7569 34.1972 24.2539 34.5084 23.7273 34.5084C23.2001 34.5084 22.7869 34.3286 22.4878 33.9693C22.1878 33.61 22.0386 33.0593 22.0386 32.3164C22.0386 30.9752 22.2901 29.7057 22.7932 28.5076C23.2962 27.3101 23.9729 26.3461 24.8234 25.615C25.6735 24.8845 26.602 24.5074 27.6083 24.4832L26.2783 31.0947ZM62.2996 33.3944C61.7364 34.0176 61.0717 34.3286 60.3052 34.3286C59.6101 34.3286 59.0056 33.9816 58.4907 33.2867C57.9752 32.5922 57.7181 31.5861 57.7181 30.2683C57.7181 28.5918 58.0352 27.292 58.6703 26.3696C59.3047 25.4477 60.1013 24.9862 61.0598 24.9862H61.2396C61.1676 25.3698 61.1317 25.7532 61.1317 26.1361C61.1317 27.0467 61.3293 27.9091 61.7246 28.7232C62.1198 29.5379 62.6886 30.1964 63.4313 30.6994C63.2395 31.8735 62.8622 32.7716 62.2996 33.3944ZM110.448 32.9272C109.884 33.8137 109.195 34.2567 108.382 34.2567C107.663 34.2567 107.064 33.9333 106.585 33.2866C106.105 32.6398 105.866 31.6337 105.866 30.2681C105.866 28.5433 106.147 27.2442 106.71 26.3694C107.273 25.4954 107.986 25.0579 108.848 25.0579C109.519 25.0579 110.094 25.3937 110.573 26.0642C111.052 26.735 111.292 27.7294 111.292 29.0466C111.292 30.7478 111.01 32.0413 110.448 32.9272Z" fill="white"/>
  <path d="M132.627 13.7724C132.568 13.8312 132.508 13.8882 132.444 13.9428C130.911 15.2572 128.387 14.9896 127.651 14.8763C125.849 14.5997 124.373 12.5814 123.79 11.6707C123.207 12.5819 121.731 14.5997 119.93 14.8763C119.193 14.9894 116.669 15.2572 115.137 13.9423C114.353 13.2694 113.955 12.2982 113.955 11.0555C113.955 9.8126 114.351 8.84345 115.136 8.16819C116.668 6.85378 119.193 7.12073 119.93 7.23378C121.731 7.5109 123.208 9.52887 123.791 10.4394C124.373 9.52853 125.849 7.51023 127.651 7.23378C128.388 7.12107 130.913 6.85362 132.445 8.16819C133.228 8.8409 133.625 9.81243 133.626 11.0553C133.625 12.1975 133.29 13.1102 132.627 13.7724ZM124.122 11.0551C124.454 11.6126 125.974 14.0072 127.742 14.2785C128.415 14.3823 130.713 14.6307 132.05 13.484C132.695 12.9301 133.021 12.1138 133.021 11.0553C133.021 9.99667 132.694 9.17972 132.051 8.62684C130.715 7.48056 128.415 7.72802 127.742 7.83175C125.973 8.10378 124.454 10.4977 124.122 11.0551ZM115.384 8.76226C114.837 9.30955 114.559 10.0802 114.559 11.0555C114.56 12.1138 114.886 12.9311 115.53 13.4834C116.867 14.6302 119.166 14.3823 119.838 14.2784C121.609 14.0063 123.127 11.6126 123.459 11.0551C123.127 10.4975 121.606 8.10294 119.838 7.83158C119.166 7.72819 116.866 7.4804 115.53 8.62718C115.479 8.6704 115.431 8.71599 115.384 8.76226Z" fill="white"/>
  <path d="M130.746 18.01C129.867 18.889 128.899 19.2947 127.869 19.2159C125.856 19.0627 124.26 17.0886 123.819 16.4871C122.741 15.0181 123.123 12.5466 123.356 11.4907C122.3 11.7234 119.829 12.1061 118.36 11.0279C117.758 10.5868 115.784 8.99099 115.631 6.97794C115.552 5.94794 115.958 4.97997 116.837 4.10116C117.715 3.22235 118.683 2.81641 119.713 2.8954C121.726 3.04862 123.322 5.02269 123.763 5.62421C124.842 7.09319 124.459 9.56472 124.227 10.6201C125.282 10.3879 127.754 10.0052 129.223 11.0834C129.824 11.5246 131.798 13.1203 131.952 15.1332C132.03 16.1634 131.624 17.1312 130.746 18.01ZM124.026 11.2903C123.867 11.9193 123.248 14.6873 124.306 16.1293C124.709 16.6781 126.159 18.4791 127.915 18.6132C128.761 18.6776 129.569 18.3312 130.318 17.5825C131.067 16.8339 131.413 16.0256 131.349 15.1795C131.215 13.4237 129.414 11.9734 128.865 11.5707C127.423 10.5129 124.655 11.1305 124.026 11.2903ZM117.264 4.52879C116.516 5.27743 116.169 6.08574 116.234 6.93184C116.368 8.6876 118.169 10.1379 118.718 10.5407C120.16 11.5984 122.928 10.9803 123.557 10.821C123.716 10.1915 124.334 7.42404 123.276 5.98201C122.874 5.43319 121.423 3.63218 119.668 3.49811C118.821 3.43353 118.013 3.78014 117.264 4.52879Z" fill="white"/>
  <path d="M130.253 10.1391C129.83 10.5616 129.437 10.8688 129.221 11.0274C127.752 12.1052 125.281 11.7223 124.225 11.4901C124.457 12.5457 124.84 15.0174 123.762 16.4866C123.32 17.0888 121.725 19.0621 119.712 19.2157C118.682 19.2943 117.714 18.8886 116.835 18.0096C115.956 17.1308 115.55 16.1628 115.629 15.1327C115.782 13.1199 117.756 11.5238 118.358 11.0828C119.827 10.0049 122.299 10.3874 123.355 10.6196C123.122 9.56401 122.74 7.09282 123.817 5.6235C124.26 5.0213 125.855 3.04875 127.867 2.89435C128.897 2.8157 129.865 3.22147 130.744 4.10028C131.623 4.97926 132.029 5.94706 131.95 6.9774C131.852 8.26706 131.006 9.38587 130.253 10.1391ZM124.025 10.8203C124.653 10.9798 127.421 11.5981 128.864 10.5398C129.414 10.1367 131.214 8.68689 131.347 6.93164C131.412 6.08536 131.065 5.27672 130.317 4.52808C129.568 3.77943 128.759 3.43265 127.913 3.4974C126.158 3.63164 124.708 5.43333 124.305 5.98113C123.245 7.42604 123.865 10.1918 124.025 10.8203ZM117.741 12.4091C117.063 13.0871 116.316 14.0723 116.232 15.1788C116.167 16.025 116.514 16.8337 117.263 17.5823C118.011 18.331 118.82 18.6777 119.666 18.613C121.422 18.4791 122.872 16.6777 123.274 16.1293C124.335 14.6844 123.716 11.9182 123.555 11.2896C122.927 11.1301 120.158 10.5121 118.716 11.5706C118.513 11.7196 118.139 12.0116 117.741 12.4091Z" fill="white"/>
  <path d="M126.507 19.8927C125.845 20.5556 124.932 20.891 123.79 20.8909C122.547 20.891 121.575 20.4934 120.902 19.7095C119.588 18.1771 119.855 15.6529 119.968 14.9158C120.245 13.1141 122.263 11.6375 123.174 11.056C122.263 10.4734 120.245 8.99714 119.968 7.19562C119.855 6.45867 119.588 3.93409 120.902 2.40257C121.573 1.61748 122.546 1.22053 123.79 1.2207C125.033 1.22053 126.004 1.61799 126.677 2.40189C127.992 3.93375 127.724 6.4585 127.611 7.19562C127.334 8.99697 125.316 10.4731 124.405 11.0554C125.316 11.638 127.334 13.1148 127.611 14.9158C127.724 15.6534 127.991 18.178 126.676 19.7099C126.622 19.7732 126.565 19.8343 126.507 19.8927ZM121.81 12.9083C121.21 13.5083 120.685 14.2343 120.566 15.0075C120.463 15.6804 120.215 17.9792 121.361 19.3156C121.914 19.9593 122.731 20.2861 123.79 20.2861C124.848 20.2861 125.669 19.9558 126.217 19.316C127.364 17.9799 127.116 15.6802 127.013 15.0075C126.741 13.2366 124.347 11.7188 123.789 11.3875C123.476 11.5743 122.581 12.1371 121.81 12.9083ZM123.789 10.7236C124.347 10.3917 126.741 8.87172 127.013 7.10358C127.117 6.4307 127.365 4.13172 126.218 2.79545C125.665 2.15172 124.848 1.82511 123.79 1.82511C122.731 1.82528 121.919 2.14731 121.361 2.79613C120.215 4.13223 120.463 6.4307 120.566 7.10358C120.837 8.87138 123.232 10.3917 123.789 10.7236Z" fill="white"/>
</svg>
