<svg xmlns="http://www.w3.org/2000/svg" xmlns:xlink="http://www.w3.org/1999/xlink" viewBox="0 0 1845.19 633.02"><defs><style>.cls-1{isolation:isolate;}.cls-2{font-size:146.82px;fill:#8cc63f;font-family:Lato-Regular, Lato;}.cls-3{fill:url(#linear-gradient);}.cls-4{mix-blend-mode:multiply;}.cls-5{fill:url(#linear-gradient-2);}.cls-6{fill:url(#linear-gradient-3);}.cls-7{fill:url(#linear-gradient-4);}.cls-8{fill:url(#linear-gradient-5);}</style><linearGradient id="linear-gradient" x1="45" y1="413.99" x2="1627.43" y2="413.99" gradientUnits="userSpaceOnUse"><stop offset="0.07" stop-color="#b9d351"/><stop offset="0.22" stop-color="#b2d159"/><stop offset="0.45" stop-color="#a0cd70"/><stop offset="0.72" stop-color="#83c594"/><stop offset="0.9" stop-color="#6ec0af"/></linearGradient><linearGradient id="linear-gradient-2" x1="1427.93" y1="301.44" x2="1654.66" y2="301.44" gradientTransform="translate(435.53 1150.48) rotate(-45)" xlink:href="#linear-gradient"/><linearGradient id="linear-gradient-3" x1="1486.87" y1="301.44" x2="1595.72" y2="301.44" gradientTransform="translate(435.53 1150.48) rotate(-45)" xlink:href="#linear-gradient"/><linearGradient id="linear-gradient-4" x1="1404.83" y1="301.44" x2="1677.77" y2="301.44" gradientTransform="translate(435.53 1150.48) rotate(-45)" xlink:href="#linear-gradient"/><linearGradient id="linear-gradient-5" x1="1427.93" y1="301.44" x2="1654.66" y2="301.44" gradientTransform="translate(435.53 1150.48) rotate(-45)" xlink:href="#linear-gradient"/></defs><g class="cls-1"><g id="Layer_1" data-name="Layer 1"><text class="cls-2" transform="translate(0 126)">POWERED BY</text><path class="cls-3" d="M1617,467.58a90.72,90.72,0,0,0-31.41-38.64q-20.94-14.7-50.35-14.7a95,95,0,0,0-54.85,16.7q-24.43,16.71-38.64,46.37t-14.21,67.55a135.54,135.54,0,0,0,1.32,18.84,214.33,214.33,0,0,1-19.76,18,59.47,59.47,0,0,1-37.89,13q-26.43,0-38.64-20.94T1320.32,501q0-14,1-38.89h60.83q56.34,0,56.34-34.4,0-9.46-3.49-13t-11.47-3.49h-55.84q64.82-57.32,64.81-134.61,0-27.92-12-46.37t-32.91-18.44q-28.41,0-53.09,26.92T1292.4,311q-17.46,45.38-25.93,100.21h-28.42q-22.44,0-22.43,27.92,0,12,5.23,17.45T1241,462.1h19.45q-1.5,22.44-1.5,44.37c0,10.73.46,20.81,1.31,30.33a20,20,0,0,0-8.28,6.07q-22.93,27.42-36.65,39.63t-23.68,12.22q-14.46,0-14.46-19.94,0-14,9.48-57.34,10.95-50.85,11-70.3,0-32.4-32.41-32.41-16.45,0-36.15,11.47T1089,464.59q-20.45,26.93-36.89,69.8a356.11,356.11,0,0,1,5-36.89q3-15,8-34.9,7.48-27.92,7.48-35.9,0-7-4-9.47t-14-2.5q-18.45,0-28.66,6.74t-14.71,21.18A389.57,389.57,0,0,0,998,498.94a264.5,264.5,0,0,1-39.59,6q-4-38.4-27.18-64.57t-61.07-26.17a100.48,100.48,0,0,0-56.34,16.7q-25.42,16.71-39.89,46.37t-14.45,67.55a132.34,132.34,0,0,0,1.44,19.59A210.85,210.85,0,0,1,742,582.75q-14.46,12-29.91,12-14.48,0-24.68-8.23a33,33,0,0,1-12.22-21.69q33.9-17.94,47.86-40.88a95,95,0,0,0,14-50.36q0-24.92-15.2-41.87t-40.14-17q-26.92,0-57.83,28.17T569,533.39q0-27.4,1.5-53.34,66.3-72.29,95.73-126.39t29.41-104.45q0-31.41-14.21-51.11t-37.14-19.69q-42.88,0-73.54,56.59T524.36,374.85q-15.71,83.26-15.7,160c0,6.69,0,13,.12,19-10.95,12.66-20,22.24-27,28.63q-13.46,12.22-22.93,12.22a12.06,12.06,0,0,1-9.72-4.49q-3.75-4.49-3.74-12,0-22.44,11.46-79.78,7.49-39.37,7.48-49.85,0-17.44-24.43-17.45a117.86,117.86,0,0,0-21.94,2q-2.49-10.95-6.23-15.21T397,413.74q-34.39,0-65.06,21.68t-49.11,57.34a167.43,167.43,0,0,0-8.7,19.85q-11.62,8.31-20.21,8.32-12.47,0-12.46-17.45,0-5,4-24.93,4.48-24.93,4.48-31.41,0-32.4-32.4-32.41-16.45,0-36.15,11.47t-40.14,38.39q-20.44,26.93-36.89,69.8a356.11,356.11,0,0,1,5-36.89q3-15,8-34.9,7.49-27.92,7.48-35.9,0-7-4-9.47t-14-2.5q-18.45,0-28.66,6.74T63.45,442.65Q45,501,45,565.8q0,43.88,7.73,63.82T79.4,649.56q15.45,0,22.69-8.23t12.71-31.66a359.33,359.33,0,0,1,19.44-57.83q12-27.4,24.19-44.12T178.12,491c3.65,0,5.48,2.67,5.48,8q0,3.5-1,13.46a76,76,0,0,0-1.5,15q0,22.94,13.71,36.4T235,577.27a80.86,80.86,0,0,0,29.46-5.5q.85,34,18.39,55.35,18.45,22.44,49.36,22.44,39.38,0,65.31-41.88,7,19.44,20.7,30.66t30.16,11.22q21.42,0,44.37-17.45a228.73,228.73,0,0,0,20-17.25q2.76,15.12,8.14,23.48,7.23,11.22,22.69,11.22t22.68-8.23q7.23-8.22,12.72-31.66a358,358,0,0,1,21.93-63.06q14-30.68,30.17-50.11t29.66-19.44a11.57,11.57,0,0,1,9.23,4.48q3.74,4.48,3.73,13.46,0,15.47-9.47,26.18T632.8,541.37q-19.95,8.49-19.94,27.92,0,36.4,23.43,58.34t61.82,21.93q31.41,0,54.35-16.45a210.13,210.13,0,0,0,25.91-22.29,90.7,90.7,0,0,0,24.19,24.28q21.2,14.48,51.11,14.46,35.39,0,63.32-25.18t37.39-67A247.6,247.6,0,0,0,993,552.74c-.13,4.34-.21,8.69-.21,13.06q0,43.88,7.73,63.82t26.67,19.94q15.45,0,22.69-8.23t12.71-31.66a343.11,343.11,0,0,1,19.7-57.83q12.2-27.4,23.93-44.12T1124.38,491c3.66,0,5.49,2.67,5.49,8q0,12-6.48,43.38-7,35.89-7,49.86,0,27.91,13,42.62t38.39,14.71q31.41,0,56.09-16.95T1270,589.23c.36-.42.68-.89,1-1.33q22.93,61.67,89.7,61.66,32.91,0,58.33-16.95A197,197,0,0,0,1446,610.88a90.09,90.09,0,0,0,23.16,24q20.68,14.71,50.11,14.71a95.25,95.25,0,0,0,54.59-16.7q24.69-16.7,39.14-46.37t14.46-67.56A126.74,126.74,0,0,0,1617,467.58ZM1340,330.23q8.23-33.17,17.45-51.86t16.7-18.69q11,0,11,29.41,0,25.94-14.71,57.59t-44.12,57.09A694.09,694.09,0,0,1,1340,330.23Zm-747.34-7.48q10.22-43.62,21.19-69.3t19.94-25.68q6.47,0,10,8.47t3.49,24.44q0,34.9-20.19,77.77A356.83,356.83,0,0,1,576,417.73,921.47,921.47,0,0,1,592.67,322.75ZM385.52,551.84q-4.49,21.45-14.46,34.4t-20.94,13q-11,0-17.2-7.48t-6.23-22.94a135.14,135.14,0,0,1,10.47-52.85q10.47-24.92,28.17-40.13T404,460.1Zm499.81,31.91q-11.73,13-27.68,13-14.46,0-25.17-14.45t-10.72-41.89q0-34.89,13.21-54.09t33.15-19.2h2.5a86.38,86.38,0,0,0-1.5,16,81,81,0,0,0,8.23,35.89A68.71,68.71,0,0,0,901,546.36Q897,570.79,885.33,583.75Zm668.06-6.48q-11.72,18.45-28.67,18.45-15,0-24.92-13.46t-10-41.89q0-35.89,11.71-54.09t29.67-18.2q13.95,0,23.93,14t10,41.38Q1565.11,558.84,1553.39,577.27Z" transform="translate(-29.81 -16.54)"/><g class="cls-4"><path class="cls-5" d="M1861.15,311.49c-.82.82-1.66,1.6-2.55,2.36-21.26,18.24-56.28,14.53-66.51,13-25-3.84-45.48-31.85-53.56-44.48C1730.45,295,1710,323,1685,326.81c-10.23,1.56-45.26,5.28-66.51-13-10.88-9.34-16.39-22.82-16.4-40.06s5.5-30.69,16.39-40.06c21.25-18.24,56.29-14.53,66.52-13,25,3.85,45.48,31.85,53.57,44.48,8.08-12.64,28.56-40.64,53.55-44.48h0c10.23-1.56,45.27-5.27,66.52,13,10.88,9.33,16.39,22.81,16.39,40.06C1875,289.64,1870.34,302.3,1861.15,311.49Zm-118-37.7c4.6,7.73,25.7,40.95,50.23,44.72,9.33,1.44,41.22,4.89,59.77-11,8.95-7.69,13.48-19,13.47-33.7s-4.53-26-13.46-33.7c-18.54-15.9-50.44-12.47-59.78-11C1768.82,232.83,1747.74,266.05,1743.14,273.79ZM1621.9,242c-7.6,7.6-11.45,18.29-11.45,31.82,0,14.68,4.53,26,13.47,33.69,18.54,15.91,50.44,12.47,59.78,11,24.57-3.77,45.62-37,50.23-44.72-4.61-7.74-25.7-41-50.23-44.73-9.34-1.43-41.24-4.87-59.78,11C1623.22,240.7,1622.54,241.33,1621.9,242Z" transform="translate(-29.81 -16.54)"/></g><path class="cls-6" d="M1835,370.28c-12.2,12.2-25.63,17.83-39.92,16.73-27.93-2.12-50.07-29.52-56.19-37.86-15-20.39-9.65-54.68-6.42-69.33-14.66,3.23-49,8.54-69.33-6.42-8.35-6.12-35.74-28.26-37.86-56.19-1.1-14.3,4.53-27.72,16.73-39.92s25.62-17.83,39.91-16.73c27.93,2.12,50.08,29.52,56.2,37.86,15,20.39,9.65,54.68,6.43,69.32,14.64-3.22,48.93-8.53,69.32,6.43,8.34,6.12,35.73,28.26,37.86,56.19C1852.85,344.66,1847.22,358.09,1835,370.28ZM1741.79,277c-2.21,8.73-10.79,47.14,3.89,67.14,5.59,7.62,25.71,32.61,50.07,34.47,11.74.89,23-3.91,33.35-14.3s15.19-21.61,14.3-33.35c-1.86-24.36-26.85-44.48-34.47-50.07C1788.92,266.25,1750.52,274.83,1741.79,277ZM1648,183.22c-10.39,10.39-15.2,21.61-14.3,33.35,1.86,24.36,26.85,44.48,34.46,50.07,20,14.68,58.42,6.1,67.15,3.89,2.21-8.73,10.78-47.14-3.89-67.14-5.59-7.62-25.71-32.61-50.08-34.47C1669.57,168,1658.36,172.83,1648,183.22Z" transform="translate(-29.81 -16.54)"/><g class="cls-4"><path class="cls-7" d="M1828.21,261.07a126.12,126.12,0,0,1-14.31,12.33c-20.39,15-54.68,9.64-69.32,6.42,3.22,14.65,8.52,48.94-6.43,69.33-6.13,8.36-28.26,35.74-56.2,37.87-14.29,1.09-27.72-4.54-39.92-16.74s-17.82-25.62-16.73-39.92c2.13-27.92,29.52-50.07,37.87-56.19,20.38-15,54.68-9.65,69.33-6.43-3.23-14.64-8.53-48.93,6.42-69.32h0c6.14-8.36,28.27-35.72,56.19-37.87,14.3-1.09,27.73,4.54,39.92,16.74s17.83,25.62,16.74,39.92C1850.4,235.1,1838.66,250.62,1828.21,261.07Zm-86.42,9.46c8.73,2.21,47.13,10.79,67.15-3.9,7.62-5.59,32.61-25.71,34.46-50.06.9-11.74-3.91-23-14.3-33.35s-21.61-15.2-33.35-14.3c-24.36,1.86-44.48,26.86-50.07,34.46h0C1731,223.43,1739.57,261.8,1741.79,270.53Zm-87.18,22c-9.41,9.41-19.77,23.08-20.94,38.43-.9,11.74,3.91,23,14.3,33.35s21.6,15.2,33.35,14.3c24.36-1.86,44.47-26.85,50.06-34.46,14.71-20.05,6.12-58.43,3.9-67.15-8.73-2.22-47.14-10.79-67.15,3.9A119.09,119.09,0,0,0,1654.61,292.57Z" transform="translate(-29.81 -16.54)"/></g><g class="cls-4"><path class="cls-8" d="M1776.24,396.4c-9.19,9.2-21.86,13.86-37.7,13.85-17.25,0-30.73-5.51-40.07-16.39-18.23-21.26-14.52-56.29-13-66.51,3.84-25,31.85-45.49,44.48-53.56-12.63-8.08-40.64-28.57-44.48-53.56-1.57-10.23-5.28-45.26,13-66.51,9.31-10.89,22.81-16.4,40.06-16.4h0c17.25,0,30.73,5.51,40.07,16.39,18.24,21.26,14.52,56.29,13,66.52-3.85,25-31.85,45.47-44.48,53.55,12.63,8.09,40.63,28.58,44.48,53.57,1.56,10.23,5.27,45.26-13,66.52C1777.84,394.75,1777.05,395.59,1776.24,396.4Zm-65.17-96.91c-8.33,8.33-15.62,18.4-17.26,29.13-1.44,9.34-4.88,41.24,11,59.78,7.67,8.93,19,13.46,33.7,13.46s26.07-4.58,33.68-13.46c15.91-18.54,12.47-50.44,11-59.78-3.77-24.57-37-45.63-44.73-50.23A149.29,149.29,0,0,0,1711.07,299.49Zm27.46-30.31c7.74-4.61,41-25.7,44.73-50.23,1.44-9.33,4.88-41.23-11-59.77-7.67-8.94-19-13.47-33.7-13.47h0c-14.68,0-26,4.47-33.69,13.47-15.91,18.54-12.46,50.44-11,59.77C1697.57,243.48,1730.8,264.57,1738.53,269.18Z" transform="translate(-29.81 -16.54)"/></g></g></g></svg>